<svg id="Layer_1" data-name="Layer 1" xmlns="http://www.w3.org/2000/svg" xmlns:xlink="http://www.w3.org/1999/xlink" viewBox="0 0 480 480"><defs><style>.cls-1{fill:url(#linear-gradient);}.cls-2{fill:#29324a;}.cls-3{fill:none;stroke:#29324a;stroke-linecap:round;stroke-miterlimit:10;stroke-width:10px;}.cls-4{fill:url(#Green);}</style><linearGradient id="linear-gradient" x1="85" y1="240" x2="395" y2="240" gradientUnits="userSpaceOnUse"><stop offset="0.01" stop-color="#fff"/><stop offset="0.13" stop-color="#f7f7f7" stop-opacity="0.96"/><stop offset="0.37" stop-color="#e1e1e2" stop-opacity="0.85"/><stop offset="0.7" stop-color="#bebfc1" stop-opacity="0.67"/><stop offset="1" stop-color="#9b9da0" stop-opacity="0.5"/></linearGradient><linearGradient id="Green" x1="232.59" y1="288.02" x2="351.59" y2="288.02" gradientUnits="userSpaceOnUse"><stop offset="0" stop-color="#bbd7c5"/><stop offset="0.5" stop-color="#8cbf9e"/><stop offset="1" stop-color="#82b898"/></linearGradient></defs><rect class="cls-1" x="85" y="53" width="310" height="374" rx="6"/><path class="cls-2" d="M91,41A18.1,18.1,0,0,0,73,59V421a18.1,18.1,0,0,0,18,18H389a18.1,18.1,0,0,0,18-18V59a18.1,18.1,0,0,0-18-18Zm0,12H389a5.9,5.9,0,0,1,6,6V421a5.9,5.9,0,0,1-6,6H91a5.9,5.9,0,0,1-6-6V59A5.9,5.9,0,0,1,91,53ZM225.6,349.4a6,6,0,0,0,6,6,6,6,0,1,0,0-12A6,6,0,0,0,225.6,349.4Zm24,0a6,6,0,0,0,6,6,6,6,0,1,0,0-12A6,6,0,0,0,249.6,349.4Zm24,0a6,6,0,0,0,6,6,6,6,0,0,0,0-12A6,6,0,0,0,273.6,349.4Zm24.5,0a6,6,0,1,0,6-6A6,6,0,0,0,298.1,349.4Zm24,0a6,6,0,1,0,6-6A6,6,0,0,0,322.1,349.4Zm24,0a6,6,0,1,0,6-6A6,6,0,0,0,346.1,349.4Zm-72.5,30.5a6,6,0,0,0,6,6,6,6,0,0,0,0-12A6,6,0,0,0,273.6,379.9Zm24.5,0a6,6,0,1,0,6-6A6,6,0,0,0,298.1,379.9Zm24,0a6,6,0,1,0,6-6A6,6,0,0,0,322.1,379.9Zm24,0a6,6,0,1,0,6-6A6,6,0,0,0,346.1,379.9Z"/><circle class="cls-3" cx="132.8" cy="97.8" r="17.2"/><path class="cls-2" d="M238.6,249a18.1,18.1,0,0,0-18,18v42a18.1,18.1,0,0,0,18,18h107a18.1,18.1,0,0,0,18-18V267a18.1,18.1,0,0,0-18-18Zm0,12h107a5.9,5.9,0,0,1,6,6v42a5.9,5.9,0,0,1-6,6h-107a5.9,5.9,0,0,1-6-6V267A5.9,5.9,0,0,1,238.6,261Z"/><rect class="cls-4" x="232.6" y="261" width="119" height="54" rx="6"/></svg>