<svg id="Layer_1" data-name="Layer 1" xmlns="http://www.w3.org/2000/svg" xmlns:xlink="http://www.w3.org/1999/xlink" viewBox="0 0 480 480"><defs><style>.cls-1{fill:url(#Green);}.cls-2{fill:#29324a;}</style><linearGradient id="Green" x1="126" y1="263" x2="354" y2="263" gradientUnits="userSpaceOnUse"><stop offset="0" stop-color="#bbd7c5"/><stop offset="0.5" stop-color="#8cbf9e"/><stop offset="1" stop-color="#82b898"/></linearGradient></defs><path class="cls-1" d="M270,101h84V419a6,6,0,0,1-6,6H132a6,6,0,0,1-6-6V101H270Z"/><path class="cls-2" d="M210,41a12,12,0,0,0-12,12V65H132a18.1,18.1,0,0,0-18,18V419a18.1,18.1,0,0,0,18,18H348a18.1,18.1,0,0,0,18-18V83a18.1,18.1,0,0,0-18-18H282V53a12,12,0,0,0-12-12Zm0,12h60V77h78a5.9,5.9,0,0,1,6,6V419a5.9,5.9,0,0,1-6,6H132a5.9,5.9,0,0,1-6-6V83a5.9,5.9,0,0,1,6-6h78Zm18,12a6,6,0,1,0,6,6A6,6,0,0,0,228,65Zm24,0a6,6,0,1,0,6,6A6,6,0,0,0,252,65Z"/><polygon class="cls-2" points="240 186 213 250.1 236.6 250.1 236.6 294 267 236.6 240 236.6 240 186"/><circle class="cls-2" cx="144" cy="407" r="6"/><circle class="cls-2" cx="168" cy="407" r="6"/><circle class="cls-2" cx="192" cy="407" r="6"/><circle class="cls-2" cx="216" cy="407" r="6"/><circle class="cls-2" cx="240" cy="407" r="6"/><circle class="cls-2" cx="264" cy="407" r="6"/><circle class="cls-2" cx="288" cy="407" r="6"/><circle class="cls-2" cx="312" cy="407" r="6"/><circle class="cls-2" cx="336" cy="407" r="6"/></svg>