<?xml version="1.0" encoding="UTF-8" standalone="no"?>
<!-- Generator: Adobe Illustrator 19.0.0, SVG Export Plug-In . SVG Version: 6.00 Build 0)  -->

<svg
   xmlns:dc="http://purl.org/dc/elements/1.1/"
   xmlns:cc="http://creativecommons.org/ns#"
   xmlns:rdf="http://www.w3.org/1999/02/22-rdf-syntax-ns#"
   xmlns:svg="http://www.w3.org/2000/svg"
   xmlns="http://www.w3.org/2000/svg"
   xmlns:sodipodi="http://sodipodi.sourceforge.net/DTD/sodipodi-0.dtd"
   xmlns:inkscape="http://www.inkscape.org/namespaces/inkscape"
   version="1.1"
   id="Layer_1"
   x="0px"
   y="0px"
   viewBox="0 0 360.33 360.33"
   style="enable-background:new 0 0 360.33 360.33;"
   xml:space="preserve"
   sodipodi:docname="chart.svg"
   inkscape:version="0.92.3 (2405546, 2018-03-11)"><metadata
   id="metadata103"><rdf:RDF><cc:Work
       rdf:about=""><dc:format>image/svg+xml</dc:format><dc:type
         rdf:resource="http://purl.org/dc/dcmitype/StillImage" /></cc:Work></rdf:RDF></metadata><defs
   id="defs101" /><sodipodi:namedview
   pagecolor="#ffffff"
   bordercolor="#666666"
   borderopacity="1"
   objecttolerance="10"
   gridtolerance="10"
   guidetolerance="10"
   inkscape:pageopacity="0"
   inkscape:pageshadow="2"
   inkscape:window-width="911"
   inkscape:window-height="547"
   id="namedview99"
   showgrid="false"
   inkscape:zoom="0.6549552"
   inkscape:cx="112.62253"
   inkscape:cy="180.16499"
   inkscape:window-x="3332"
   inkscape:window-y="377"
   inkscape:window-maximized="0"
   inkscape:current-layer="Layer_1" />
<g
   id="g6">
	<g
   id="g4">
		<path
   d="M352.292,8.364c-5.244-5.331-12.251-8.301-19.729-8.363L332.328,0c-15.308,0-27.866,12.456-27.992,27.766    c-0.061,7.478,2.792,14.533,8.037,19.864s12.251,8.301,19.729,8.363l0.235,0.001c15.308,0,27.866-12.456,27.992-27.766    C360.39,20.75,357.536,13.695,352.292,8.364z M332.336,45.651l-0.149-0.001c-4.715-0.039-9.133-1.912-12.439-5.273    c-3.307-3.362-5.107-7.81-5.068-12.525c0.079-9.654,7.996-17.508,17.648-17.508l0.149,0.001c4.715,0.039,9.133,1.912,12.439,5.273    c3.307,3.362,5.107,7.81,5.068,12.525C349.905,37.797,341.988,45.651,332.336,45.651z"
   id="path2" />
	</g>
</g>
<g
   id="g12">
	<g
   id="g10">
		<path
   d="M28.228,152.169l-0.235-0.001c-15.309,0-27.866,12.456-27.992,27.767c-0.127,15.436,12.328,28.099,27.765,28.227H28    c15.309,0,27.867-12.456,27.993-27.766C56.12,164.959,43.665,152.296,28.228,152.169z M28,197.818l-0.149-0.001    c-9.734-0.08-17.588-8.064-17.508-17.798c0.08-9.654,7.997-17.508,17.649-17.508h0.149c9.734,0.08,17.588,8.065,17.508,17.799    C45.57,189.964,37.653,197.818,28,197.818z"
   id="path8" />
	</g>
</g>
<g
   id="g18">
	<g
   id="g16">
		<path
   d="M133.585,46.812l-0.235-0.001c-15.309,0-27.867,12.456-27.992,27.766c-0.127,15.437,12.328,28.1,27.765,28.227    l0.235,0.001c15.308,0,27.866-12.456,27.992-27.766C161.477,59.601,149.022,46.938,133.585,46.812z M133.357,92.462l-0.149-0.001    c-9.734-0.08-17.588-8.065-17.508-17.798c0.08-9.654,7.997-17.508,17.649-17.508l0.149,0.001    c9.734,0.08,17.588,8.065,17.508,17.798C150.927,84.608,143.01,92.462,133.357,92.462z"
   id="path14" />
	</g>
</g>
<g
   id="g24">
	<g
   id="g22">
		<path
   d="M209.669,122.896l-0.235-0.001c-15.309,0-27.866,12.456-27.992,27.766c-0.127,15.437,12.329,28.1,27.766,28.227    l0.234,0.001c15.308,0,27.866-12.456,27.992-27.766C237.561,135.685,225.105,123.023,209.669,122.896z M209.441,168.546    l-0.149-0.001c-9.734-0.08-17.588-8.065-17.508-17.798c0.079-9.654,7.996-17.508,17.648-17.508l0.149,0.001    c9.734,0.08,17.587,8.065,17.507,17.798C227.01,160.692,219.093,168.546,209.441,168.546z"
   id="path20" />
	</g>
</g>
<g
   id="g30">
	<g
   id="g28">
		<rect
   x="206.728"
   y="84.203"
   transform="matrix(0.7062 -0.708 0.708 0.7062 16.2826 217.9874)"
   width="128.149"
   height="10.343"
   id="rect26" />
	</g>
</g>
<g
   id="g36">
	<g
   id="g34">
		<rect
   x="166.241"
   y="81.876"
   transform="matrix(0.7071 -0.7071 0.7071 0.7071 -29.608 154.267)"
   width="10.343"
   height="61.994"
   id="rect32" />
	</g>
</g>
<g
   id="g42">
	<g
   id="g40">
		
			<rect
   x="29.003"
   y="122.315"
   transform="matrix(0.7071 -0.7071 0.7071 0.7071 -66.517 94.3877)"
   width="103.349"
   height="10.343"
   id="rect38" />
	</g>
</g>
<g
   id="g48">
	<g
   id="g46">
		<path
   d="M 296.727,98.518 V 352.33 h 63.602 V 98.518 Z m 10.344,243.468 -0.001,-233.125 h 42.916 v 233.125 z"
   id="path44"
   inkscape:connector-curvature="0" />
	</g>
</g>
<g
   id="g54"
   transform="translate(0,-8)">
	<g
   id="g52">
		<path
   d="M 197.818,213.035 V 360.33 H 261.42 V 213.035 Z m 53.26,136.951 H 208.162 V 223.379 h 42.916 z"
   id="path50"
   inkscape:connector-curvature="0" />
	</g>
</g>
<g
   id="g60">
	<g
   id="g58">
		<path
   d="M 98.908,197.427 V 352.33 H 162.51 V 197.427 Z m 53.26,144.559 H 109.252 V 207.771 h 42.916 z"
   id="path56"
   inkscape:connector-curvature="0" />
	</g>
</g>
<g
   id="g66">
	<g
   id="g64">
		<path
   d="M 0,235.469 V 352.33 H 63.602 L 63.603,235.469 Z M 53.259,341.986 H 10.343 v -96.175 h 42.916 c 0,0 0,96.175 0,96.175 z"
   id="path62"
   inkscape:connector-curvature="0" />
	</g>
</g>
<g
   id="g68">
</g>
<g
   id="g70">
</g>
<g
   id="g72">
</g>
<g
   id="g74">
</g>
<g
   id="g76">
</g>
<g
   id="g78">
</g>
<g
   id="g80">
</g>
<g
   id="g82">
</g>
<g
   id="g84">
</g>
<g
   id="g86">
</g>
<g
   id="g88">
</g>
<g
   id="g90">
</g>
<g
   id="g92">
</g>
<g
   id="g94">
</g>
<g
   id="g96">
</g>
</svg>