<?xml version="1.0" encoding="utf-8"?>
<!-- Generator: Adobe Illustrator 24.2.1, SVG Export Plug-In . SVG Version: 6.00 Build 0)  -->
<svg version="1.1" id="Layer_1" xmlns="http://www.w3.org/2000/svg" xmlns:xlink="http://www.w3.org/1999/xlink" x="0px" y="0px"
	 viewBox="0 0 461.8 89.8" style="enable-background:new 0 0 461.8 89.8;" xml:space="preserve">
<style type="text/css">
	.st0{fill:#29324A;}
	.st1{fill:#FFFFFF;}
	.st2{fill:#F28221;}
	.st3{fill:#F3BC19;}
	.st4{fill:#FCD343;}
	.st5{fill:#F8E651;}
	.st6{fill:#FAE98C;}
</style>
<g>
	<g>
		<path class="st0" d="M262.2,56.3l-0.2-1.2c-3.3,0.8-7.7,1.8-10.9,1.8c-2,0-4.4-0.2-6.2-1.4c-1.5-1-2.3-2.8-2.3-4.9
			c0-2.3,0.9-4.4,3.5-5.4c1.9-0.8,4.2-0.9,6.7-0.9c2.5,0,5.8,0.1,8.9,0.3V44c0-4.5-2.4-6.1-8.7-6.1c-2.4,0-4.9,0.2-7.3,0.4v-2.6
			c2.5-0.2,5.1-0.4,7.6-0.4c3.3,0,6.6,0.4,8.7,2c2.4,1.9,2.6,4.1,2.6,7v11.9H262.2z M261.6,46.9c-2.9-0.2-6.1-0.3-9.1-0.3
			c-5.5,0-7,1.4-7,3.8c0,2.5,1.7,3.9,5.8,3.9c3.2,0,6.8-0.7,10.3-1.5V46.9z"/>
		<path class="st0" d="M287.8,55.9c-2,0.8-5,0.9-7,0.9c-2.2,0-5.2-0.2-7.6-0.4v-2.7c2.4,0.3,5.3,0.4,7.7,0.4c1.7,0,3.8,0,5.2-0.4
			c1.7-0.5,2.1-1.7,2.1-2.9c0-1.6-0.7-2.3-2.3-2.9c-1.9-0.6-4-0.8-6.6-1.3c-4.3-0.8-6.2-2.2-6.2-5.7c0-1.9,0.7-3.7,3-4.8
			c1.9-0.8,4.8-0.9,6.7-0.9c2.1,0,4.4,0.2,6.8,0.4v2.5c-2.3-0.2-4.7-0.4-7-0.4c-1.5,0-3.4,0-4.7,0.4c-1.6,0.4-2,1.6-2,2.7
			c0,1.5,0.7,2.3,2.2,2.8c2,0.6,4,0.8,6.6,1.3c4.3,0.8,6.3,2.2,6.3,5.8C290.9,52.9,290.2,54.8,287.8,55.9z"/>
		<path class="st0" d="M312.6,55.9c-2,0.8-5,0.9-7,0.9c-2.2,0-5.2-0.2-7.6-0.4v-2.7c2.4,0.3,5.3,0.4,7.7,0.4c1.7,0,3.8,0,5.2-0.4
			c1.7-0.5,2.1-1.7,2.1-2.9c0-1.6-0.7-2.3-2.3-2.9c-1.9-0.6-4-0.8-6.6-1.3c-4.3-0.8-6.2-2.2-6.2-5.7c0-1.9,0.7-3.7,3-4.8
			c1.9-0.8,4.8-0.9,6.7-0.9c2.1,0,4.4,0.2,6.8,0.4v2.5c-2.3-0.2-4.7-0.4-7-0.4c-1.5,0-3.4,0-4.8,0.4c-1.6,0.4-2,1.6-2,2.7
			c0,1.5,0.7,2.3,2.2,2.8c2,0.6,4,0.8,6.6,1.3c4.3,0.8,6.3,2.2,6.3,5.8C315.7,52.9,315,54.8,312.6,55.9z"/>
		<path class="st0" d="M324.3,30.6v-3.3h3.3v3.3H324.3z M327.4,56.3h-2.9V35.9h3L327.4,56.3L327.4,56.3z"/>
		<path class="st0" d="M351,55.9c-2,0.8-5,0.9-7,0.9c-2.2,0-5.2-0.2-7.6-0.4v-2.7c2.4,0.3,5.3,0.4,7.7,0.4c1.7,0,3.8,0,5.2-0.4
			c1.7-0.5,2.1-1.7,2.1-2.9c0-1.6-0.7-2.3-2.3-2.9c-1.9-0.6-4-0.8-6.6-1.3c-4.3-0.8-6.2-2.2-6.2-5.7c0-1.9,0.7-3.7,3-4.8
			c1.9-0.8,4.8-0.9,6.7-0.9c2.1,0,4.4,0.2,6.8,0.4v2.5c-2.3-0.2-4.7-0.4-7-0.4c-1.5,0-3.4,0-4.8,0.4c-1.6,0.4-2,1.6-2,2.7
			c0,1.5,0.7,2.3,2.2,2.8c2,0.6,4,0.8,6.6,1.3c4.3,0.8,6.3,2.2,6.3,5.8C354.2,52.9,353.5,54.8,351,55.9z"/>
		<path class="st0" d="M371.6,56.8c-3.3,0-5.7-1.2-6.6-3.7c-0.6-1.6-0.8-3.4-0.8-5.8v-8.9h-4.8v-2.5h4.8l0.4-6.2h2.5v6.2h8.9v2.5
			h-8.9v8.5c0,1.8,0.1,3.5,0.5,4.7c0.6,1.9,2.5,2.6,4.5,2.6c1.6,0,3.2-0.2,4.5-0.4v2.5C375.2,56.5,373.3,56.8,371.6,56.8z"/>
		<path class="st0" d="M402.5,56.3l-0.2-1.2c-3.3,0.8-7.7,1.8-10.9,1.8c-2,0-4.4-0.2-6.2-1.4c-1.5-1-2.3-2.8-2.3-4.9
			c0-2.3,0.9-4.4,3.5-5.4c1.9-0.8,4.2-0.9,6.7-0.9c2.5,0,5.8,0.1,8.9,0.3V44c0-4.5-2.4-6.1-8.7-6.1c-2.4,0-4.9,0.2-7.3,0.4v-2.6
			c2.5-0.2,5.1-0.4,7.6-0.4c3.3,0,6.6,0.4,8.7,2c2.4,1.9,2.6,4.1,2.6,7v11.9H402.5z M401.9,46.9c-2.9-0.2-6.1-0.3-9.1-0.3
			c-5.5,0-7,1.4-7,3.8c0,2.5,1.7,3.9,5.8,3.9c3.2,0,6.8-0.7,10.3-1.5V46.9z"/>
		<path class="st0" d="M434.9,56.3V43.8c0-4.4-2.6-5.8-6.4-5.8c-3.3,0-6.9,0.7-10.4,1.5v16.7h-3V35.9h2.5l0.2,1.2
			c3.4-0.8,7.6-1.8,11.1-1.8c2.6,0,5,0.4,6.8,2.1c1.8,1.6,2.2,3.5,2.2,6.2v12.7H434.9z"/>
		<path class="st0" d="M456.8,56.8c-3.3,0-5.7-1.2-6.6-3.7c-0.6-1.6-0.8-3.4-0.8-5.8v-8.9h-4.8v-2.5h4.8l0.4-6.2h2.5v6.2h8.9v2.5
			h-8.9v8.5c0,1.8,0.1,3.5,0.5,4.7c0.6,1.9,2.5,2.6,4.5,2.6c1.6,0,3.2-0.2,4.5-0.4v2.5C460.4,56.5,458.5,56.8,456.8,56.8z"/>
	</g>
	<g>
		<path class="st0" d="M224.6,84.5H0V2.9C0,1.3,1.3,0,2.9,0h218.7c1.6,0,2.9,1.3,2.9,2.9V84.5z"/>
		<g>
			<path class="st1" d="M42.4,62.3c-3.1,1.4-7.6,1.6-11.1,1.6c-4.2,0-8.7-0.2-13-0.6v-6.4c3.7,0.4,8.7,0.7,12.3,0.7
				c2.7,0,5.3-0.1,7-0.4c1.8-0.4,2.3-1.4,2.3-2.7c0-1.5-0.7-2.2-2.4-2.7c-2.1-0.6-4.9-1-8.1-1.5c-7.9-1.4-11.2-3.6-11.2-9.4
				c0-3.5,1.3-6.4,5-8.2c2.9-1.4,7.4-1.5,10.6-1.5c3.8,0,7.7,0.2,11.7,0.6V38c-3.7-0.4-8.1-0.7-12-0.7c-1.8,0-4.1,0-5.7,0.3
				c-1.7,0.4-2.1,1.4-2.1,2.5c0,1.5,0.7,2.1,2.3,2.6c2.1,0.6,4.8,0.9,8,1.5c8.1,1.3,11.5,3.5,11.5,9.6
				C47.6,57.5,46.2,60.6,42.4,62.3z"/>
			<path class="st1" d="M92.3,60.6c-3.8,2.6-8.8,3.3-14.9,3.3c-6.2,0-11.2-0.7-14.9-3.3c-4.3-2.8-5.8-7.5-5.8-13.1
				c0-5.6,1.5-10.3,5.8-13.1c3.7-2.5,8.7-3.3,14.9-3.3c6.1,0,11.1,0.7,14.9,3.3c4.3,2.8,5.8,7.6,5.8,13.1
				C98.1,53.1,96.6,57.8,92.3,60.6z M77.5,37.6c-8.2,0-11.9,2.6-11.9,9.6c0,7.1,3.6,10.1,11.9,10.1c8.2,0,11.7-2.5,11.7-9.6
				C89.2,40.7,85.7,37.6,77.5,37.6z"/>
			<path class="st1" d="M109.9,63V18.9h8.7V63H109.9z"/>
			<path class="st1" d="M161.6,63l-0.2-1.8c-5.3,1.3-11.4,2.7-16.8,2.7c-3.3,0-6.9-0.4-9.4-2.3c-2.3-1.7-3.4-4.4-3.4-7.5
				c0-3.5,1.5-6.8,5.2-8.4c3.3-1.5,7.6-1.7,11.6-1.7c3.3,0,7.6,0.2,11.2,0.4v-0.6c0-4.9-3.2-6.4-11.9-6.4c-3.4,0-7.5,0.2-11.4,0.6
				v-6.3c4.4-0.4,9.3-0.6,13.3-0.6c5.4,0,11,0.4,14.4,2.9c3.6,2.5,4.2,6,4.2,10.6V63H161.6z M159.7,50c-3.6-0.3-7.3-0.5-11.2-0.5
				c-6.3,0-8.5,1.3-8.5,4.2c0,2.7,1.8,4.2,6.7,4.2c4.1,0,8.9-0.9,13-1.8V50z"/>
			<path class="st1" d="M182.6,63V32h7.1l0.3,2c5.7-1.6,9.9-2.8,15.4-2.8c0.2,0,0.6,0,1.1,0.1v7.4c-1-0.1-2.1-0.1-3-0.1
				c-4.2,0-7.4,0.5-12.2,1.6V63H182.6z"/>
		</g>
		<g>
			<path class="st2" d="M44.9,89.8h-42c-1.6,0-2.9-1.3-2.9-2.9v-2.3h44.9V89.8z"/>
			<rect x="44.9" y="84.5" class="st3" width="44.9" height="5.3"/>
			<rect x="89.8" y="84.5" class="st4" width="44.9" height="5.3"/>
			<rect x="134.8" y="84.5" class="st5" width="44.9" height="5.3"/>
			<path class="st6" d="M221.7,89.8h-42v-5.3h44.9v2.3C224.6,88.4,223.3,89.8,221.7,89.8z"/>
		</g>
	</g>
</g>
</svg>
