<?xml version="1.0" encoding="utf-8"?>
<!-- Generator: Adobe Illustrator 24.2.1, SVG Export Plug-In . SVG Version: 6.00 Build 0)  -->
<svg version="1.1" id="Layer_1" xmlns="http://www.w3.org/2000/svg" xmlns:xlink="http://www.w3.org/1999/xlink" x="0px" y="0px"
	 viewBox="0 0 360.3 360.3" style="enable-background:new 0 0 360.3 360.3;" xml:space="preserve">
<g>
	<path d="M128.4,359.3c-2.6,0-5.2-0.6-7.5-1.9c-7-3.7-10.2-11.8-7.7-19.3L150.5,225H84.2c-6,0-11.4-3.3-14.2-8.6
		c-2.8-5.4-2.4-11.7,1-16.7L203.9,7.9c4.3-6.3,12.6-8.6,19.6-5.6c7.1,3.1,11,10.8,9.3,18.2l-25.3,114.8h68.5c6.2,0,11.7,3.4,14.4,9
		c2.7,5.6,2.1,12-1.7,16.9L141.1,353.1C138.1,357,133.4,359.3,128.4,359.3z M217.2,13.9c-1,0-2,0.5-2.6,1.3L81.7,207.2
		c-0.7,1-0.7,2.2-0.2,3.2c0.5,1,1.6,1.6,2.7,1.6h84.3l-43,130.3c-0.5,1.4,0.1,3,1.5,3.7c0.4,0.2,0.9,0.4,1.4,0.4
		c1,0,1.9-0.4,2.4-1.2l147.7-191.9c0.7-0.9,0.8-2.2,0.3-3.3c-0.5-1.1-1.6-1.7-2.8-1.7h-84.7l28.8-130.6c0.3-1.4-0.4-2.9-1.8-3.5
		C218,14,217.6,13.9,217.2,13.9z"/>
</g>
</svg>
