<?xml version="1.0" encoding="utf-8"?>
<!-- Generator: Adobe Illustrator 24.2.1, SVG Export Plug-In . SVG Version: 6.00 Build 0)  -->
<svg version="1.1" id="Layer_1" xmlns="http://www.w3.org/2000/svg" xmlns:xlink="http://www.w3.org/1999/xlink" x="0px" y="0px"
	 viewBox="0 0 360.3 360.3" style="enable-background:new 0 0 360.3 360.3;" xml:space="preserve">
<g>
	<path d="M300.9,358.3H59.4c-7.4,0-14-4.1-17.2-10.8c-3.1-6.5-2.2-14.1,2.4-19.7l122.1-150L50.9,31.4c-4.5-5.6-5.3-13.1-2.2-19.6
		C52,5.3,58.5,1.2,65.9,1.2h235c10.5,0,19,8.4,19,18.7v34.6c0,5-4,9-9,9s-9-4-9-9V19.9c0-0.3-0.4-0.7-1-0.7h-235
		c-0.2,0-0.7,0-0.9,0.5c-0.1,0.3-0.1,0.4,0.1,0.6L189.8,178L58.6,339.2c-0.2,0.2-0.2,0.3-0.1,0.6c0.2,0.5,0.8,0.5,0.9,0.5h241.5
		c0.6,0,1-0.4,1-0.7v-38.1c0-5,4-9,9-9s9,4,9,9v38.1C319.9,349.9,311.4,358.3,300.9,358.3z"/>
</g>
</svg>
