<svg id="Layer_1" data-name="Layer 1" xmlns="http://www.w3.org/2000/svg" xmlns:xlink="http://www.w3.org/1999/xlink" viewBox="0 0 480 480"><defs><style>.cls-1{fill:url(#Sky_10);}.cls-2{fill:#29324a;}</style><linearGradient id="Sky_10" x1="38.48" y1="208.18" x2="441.52" y2="208.18" gradientUnits="userSpaceOnUse"><stop offset="0" stop-color="#e3e5ed"/><stop offset="0.5" stop-color="#c2c7d8"/><stop offset="1" stop-color="#9ba4bd"/></linearGradient></defs><path class="cls-1" d="M240,86.2a79.8,79.8,0,0,1,74.4,51.6h0a5.9,5.9,0,0,0-.2,1.3,5.3,5.3,0,0,0,5.3,5.3,5.2,5.2,0,0,0,5.2-4.2,68.2,68.2,0,0,1,10.8-1.1,63.8,63.8,0,0,1,63.6,63.7,61.3,61.3,0,0,1-2.2,16.2l-1.4,5.2,5.3,1.3a53,53,0,0,1-12.3,104.6H322.6a58.4,58.4,0,0,0-56.1-42.5h-1.1c-2.7-26.7-24.6-47.8-51.9-47.8-23.9,0-43.7,16.1-50.3,38a44.3,44.3,0,0,0-37.3,30.9h-2.6a47.6,47.6,0,0,0-37.9,19,63.6,63.6,0,0,1,16.8-125h5.3a5.3,5.3,0,0,0,2.3-10.1A52.9,52.9,0,0,1,157,155.3l3.1-.2h.4a5.3,5.3,0,0,0,5.3-5.3,5.4,5.4,0,0,0-2.6-4.5A79.5,79.5,0,0,1,240,86.2Z"/><path class="cls-2" d="M240,75.6a90,90,0,0,0-87.7,69.5,63.4,63.4,0,0,0-53.4,47.2A74.2,74.2,0,0,0,79.8,337.2a46.7,46.7,0,0,0-4.2,19.5,47.8,47.8,0,0,0,47.7,47.7H266.5a58.4,58.4,0,0,0,58.4-58.3c0-1.8-.2-3.6-.3-5.3h63.9a63.6,63.6,0,0,0,19.8-124.1,72.6,72.6,0,0,0,1.4-13.8,74.3,74.3,0,0,0-74.2-74.3,71.2,71.2,0,0,0-12.9,1.2A90.6,90.6,0,0,0,240,75.6Zm0,10.6a79.8,79.8,0,0,1,74.4,51.6h0a5.9,5.9,0,0,0-.2,1.3,5.3,5.3,0,0,0,5.3,5.3,5.2,5.2,0,0,0,5.2-4.2,68.2,68.2,0,0,1,10.8-1.1,63.8,63.8,0,0,1,63.6,63.7,61.3,61.3,0,0,1-2.2,16.2l-1.4,5.2,5.3,1.3a53,53,0,0,1-12.3,104.6H322.6a58.4,58.4,0,0,0-56.1-42.5h-1.1c-2.7-26.7-24.6-47.8-51.9-47.8-23.9,0-43.7,16.1-50.3,38a44.3,44.3,0,0,0-37.3,30.9h-2.6a47.6,47.6,0,0,0-37.9,19,63.6,63.6,0,0,1,16.8-125h5.3a5.3,5.3,0,0,0,2.3-10.1A52.9,52.9,0,0,1,157,155.3l3.1-.2h.4a5.3,5.3,0,0,0,5.3-5.3,5.4,5.4,0,0,0-2.6-4.5A79.5,79.5,0,0,1,240,86.2Zm-58.3,58.3a5.3,5.3,0,0,0-5.3,5.3,5.2,5.2,0,0,0,5.3,5.3,5.3,5.3,0,0,0,5.3-5.3A5.3,5.3,0,0,0,181.7,144.5Zm21.2,10.6a5.4,5.4,0,1,0,5.3,5.4A5.4,5.4,0,0,0,202.9,155.1Zm122,0a5.4,5.4,0,1,0,5.3,5.4A5.4,5.4,0,0,0,324.9,155.1Zm-106.1,16a5.3,5.3,0,0,0-5.3,5.3,5.3,5.3,0,1,0,10.6,0A5.3,5.3,0,0,0,218.8,171.1Zm106.1,5.3a5.3,5.3,0,0,0-5.4,5.3,5.4,5.4,0,0,0,10.7,0A5.3,5.3,0,0,0,324.9,176.4ZM128.6,192.3a5.3,5.3,0,0,0-5.3,5.3,5.3,5.3,0,0,0,5.3,5.3,5.3,5.3,0,0,0,5.3-5.3A5.2,5.2,0,0,0,128.6,192.3Zm21.2,10.6a5.3,5.3,0,1,0,0,10.6,5.3,5.3,0,1,0,0-10.6Zm16,15.9a5.3,5.3,0,1,0,0,10.6,5.3,5.3,0,1,0,0-10.6Zm228,15.9a5.3,5.3,0,1,0,5.3,5.3A5.3,5.3,0,0,0,393.8,234.7ZM213.5,250.6A42.3,42.3,0,0,1,255.9,293l-.4,6.2,6.2-.6a38.7,38.7,0,0,1,4.8-.3,47.8,47.8,0,0,1,0,95.5H123.3a37.2,37.2,0,0,1,0-74.3h10.6a5.2,5.2,0,0,0,5.3-5.3,5.3,5.3,0,0,0-2.8-4.6,34.4,34.4,0,0,1,30.8-21.8h3.9a5.3,5.3,0,0,0,5.3-5.3,5.5,5.5,0,0,0-2.5-4.5A42.4,42.4,0,0,1,213.5,250.6Zm169.7,0a5.3,5.3,0,1,0,5.3,5.3A5.3,5.3,0,0,0,383.2,250.6ZM187,282.4a5.3,5.3,0,0,0-5.3,5.3A5.2,5.2,0,0,0,187,293a5.3,5.3,0,0,0,5.3-5.3A5.3,5.3,0,0,0,187,282.4ZM202.9,293a5.3,5.3,0,0,0-5.3,5.3,5.2,5.2,0,0,0,5.3,5.3,5.3,5.3,0,0,0,5.3-5.3A5.3,5.3,0,0,0,202.9,293Zm10.6,15.9a5.3,5.3,0,0,0-5.3,5.3,5.3,5.3,0,1,0,10.6,0A5.3,5.3,0,0,0,213.5,308.9Zm-63.7,10.6a5.4,5.4,0,0,0,0,10.7,5.4,5.4,0,0,0,0-10.7Zm10.7,16a5.3,5.3,0,0,0-5.4,5.3,5.4,5.4,0,0,0,10.7,0A5.3,5.3,0,0,0,160.5,335.5Z"/></svg>